<?xml version="1.0" encoding="UTF-8" standalone="no"?>
<svg
   version="1.1"
   width="357.4566"
   height="191.38266"
   viewBox="0 0 357.4566 191.38266"
   id="svg578"
   xmlns="http://www.w3.org/2000/svg"
   xmlns:svg="http://www.w3.org/2000/svg">
  <defs
     id="defs582" />
  <g
     id="g527"
     transform="matrix(1.4624005,0,0,1.4624005,-268.41891,-28.822334)">
    <path
       d="m 422.41398,83.393525 h -30.73071 c -2.27772,0 -4.32495,1.38795 -5.16763,3.499617 l -3.81934,9.559507 -21.1712,-52.984997 c -0.84268,-2.114146 -2.88991,-3.499617 -5.16516,-3.499617 -2.27772,0 -4.32247,1.385471 -5.16763,3.499617 l -15.95152,39.925873 h -21.89491 c 4.99166,-13.941464 5.06602,-29.109776 -0.1041,-41.227076 -4.48605,-10.508766 -12.34532,-17.656709 -22.7252,-20.670544 -4.08702,-1.184714 -8.09225,-1.786985 -11.90663,-1.786985 -14.17444,0 -23.18372,8.022847 -28.27948,14.841152 -5.09824,-6.818305 -14.10505,-14.841152 -28.28197,-14.841152 -3.81438,0 -7.81961,0.602271 -11.90663,1.789464 -10.37988,3.011356 -18.23667,10.161778 -22.72272,20.668065 -6.19869,14.526385 -4.88509,33.442163 3.43517,49.368891 13.69362,26.20251 54.42748,56.66058 56.15498,57.94692 0.98644,0.73115 2.15132,1.09549 3.31869,1.09549 1.16736,0 2.33225,-0.36434 3.31869,-1.09549 1.66306,-1.23677 39.43017,-29.48155 54.482,-54.960349 h 30.88189 c 2.27524,0 4.32247,-1.38795 5.16763,-3.499617 l 12.18174,-30.492769 21.1712,52.987475 c 0.84516,2.11414 2.88991,3.49962 5.16764,3.49962 2.27524,0 4.31999,-1.38795 5.16763,-3.49962 l 7.58664,-18.995089 h 26.96341 c 3.07084,0 5.56171,-2.490875 5.56171,-5.564193 0,-3.073318 -2.49087,-5.564193 -5.56419,-5.564193 z M 250.32799,137.99697 c -9.91145,-7.76509 -39.22942,-31.74688 -49.61178,-51.614395 -6.70926,-12.848453 -7.91132,-28.487677 -3.06341,-39.84904 2.18354,-5.115588 6.66216,-11.757921 15.59213,-14.352892 3.07828,-0.892254 6.04007,-1.345816 8.80357,-1.345816 15.19062,0 21.96184,14.015818 23.16638,16.826417 0.87738,2.044748 2.88991,3.373215 5.11559,3.373215 2.22567,0 4.2382,-1.328467 5.11558,-3.373215 1.20207,-2.810599 7.97328,-16.826417 23.1639,-16.826417 2.76351,0 5.72529,0.453562 8.80109,1.345816 8.93245,2.594971 13.41107,9.237304 15.59213,14.352892 4.85287,11.358884 3.64833,27.000587 -3.06092,39.846561 -10.38484,19.869994 -39.70281,43.851784 -49.61426,51.616874 z"
       fill="#e95a86"
       data-fill-palette-color="accent"
       id="path552"
       style="stroke-width:2.47848" />
  </g>
</svg>
