<?xml version="1.0" encoding="UTF-8" standalone="no"?>
<svg
   version="1.1"
   width="997.21527"
   height="237.6656"
   viewBox="0 0 997.21527 237.6656"
   id="svg578"
   xmlns="http://www.w3.org/2000/svg"
   xmlns:svg="http://www.w3.org/2000/svg">
  <defs
     id="defs582" />
  <g
     id="g527"
     transform="matrix(1.4624005,0,0,1.4624005,1.0302841e-5,0)">
    <path
       d="M 35.05,-35 V 0 H 27.8 v -21.7 l -6.25,13.5 h -6.3 L 9,-21.65 V 0 H 1.8 V -35 H 9.5 L 18.45,-16.25 27.8,-35 Z m 26.2,29.25 V 0 H 40.4 v -35 h 20.85 v 5.75 h -13.6 v 7.35 H 60 v 5.85 H 47.65 v 10.3 z m 33.55,-13 v 0 c 0,5.633 -1.633,10.167 -4.9,13.6 C 86.633,-1.717 82.267,0 76.8,0 v 0 h -9.3 v -35 h 10.85 c 4.967,0 8.95,1.517 11.95,4.55 3,3.033 4.5,6.933 4.5,11.7 z m -7.55,-0.4 v 0 c 0,-3.133 -0.85,-5.6 -2.55,-7.4 -1.7,-1.8 -3.75,-2.7 -6.15,-2.7 v 0 h -4 v 23.5 h 2.7 c 2.8,0 5.167,-1.193 7.1,-3.58 1.933,-2.38 2.9,-5.653 2.9,-9.82 z M 106.35,-35 V 0 H 99.1 v -35 z m 20.1,35.3 v 0 c -5.1,0 -9.007,-1.61 -11.72,-4.83 -2.72,-3.213 -4.08,-7.57 -4.08,-13.07 0,-5.5 1.443,-9.85 4.33,-13.05 2.88,-3.2 6.887,-4.8 12.02,-4.8 v 0 c 2.8,0 5.583,0.483 8.35,1.45 v 0 l -1.4,5.6 c -2.033,-0.867 -4.433,-1.3 -7.2,-1.3 -2.767,0 -4.933,1.05 -6.5,3.15 -1.567,2.1 -2.35,5 -2.35,8.7 0,3.7 0.733,6.69 2.2,8.97 1.467,2.287 3.533,3.43 6.2,3.43 v 0 c 2,0 4.85,-0.65 8.55,-1.95 v 0 l 1.5,5.1 c -3.033,1.733 -6.333,2.6 -9.9,2.6 z m 30.6,-35.3 10.6,35 h -7.2 l -2.5,-8.55 H 147.4 L 144.95,0 H 138 l 10.5,-35 z m -8.2,20.7 h 7.75 l -3.85,-14.4 z m 42.75,8.55 V 0 h -20.75 v -35 h 7.25 v 29.25 z"
       fill="#7fdbff"
       fill-rule="nonzero"
       stroke="none"
       stroke-width="1"
       stroke-linecap="butt"
       stroke-linejoin="miter"
       stroke-miterlimit="10"
       stroke-dasharray="none"
       stroke-dashoffset="0"
       font-family="none"
       font-weight="none"
       font-size="none"
       text-anchor="none"
       style="mix-blend-mode:normal;fill:#ffffff;fill-opacity:1"
       data-fill-palette-color="primary"
       opacity="1"
       id="path533"
       transform="matrix(2.0838777,0,0,2.0838777,282.63201,77.455648)" />
    <path
       d="m 29.65,3.8 v 35 H 22.4 V 23.5 H 10.8 V 38.8 H 3.55 V 3.8 H 10.8 V 17.75 H 22.4 V 3.8 Z m 13.6,0 v 35 H 36 V 3.8 Z M 69.2,5.05 v 0 L 68,10.9 64.9,10.05 C 62.7,9.55 60.783,9.3 59.15,9.3 v 0 c -2.267,0 -3.4,1.083 -3.4,3.25 v 0 c 0,0.833 0.393,1.59 1.18,2.27 0.78,0.687 1.77,1.253 2.97,1.7 1.2,0.453 2.483,1.013 3.85,1.68 1.367,0.667 2.65,1.383 3.85,2.15 1.2,0.767 2.193,1.817 2.98,3.15 0.78,1.333 1.17,2.867 1.17,4.6 v 0 c 0,3.433 -1.107,6.123 -3.32,8.07 -2.22,1.953 -5.347,2.93 -9.38,2.93 v 0 c -2.067,0 -4.123,-0.277 -6.17,-0.83 -2.053,-0.547 -3.747,-1.187 -5.08,-1.92 v 0 L 49.95,31 c 3.067,1.4 6.1,2.1 9.1,2.1 v 0 c 1.7,0 3.033,-0.393 4,-1.18 0.967,-0.78 1.45,-1.787 1.45,-3.02 0,-1.233 -0.55,-2.26 -1.65,-3.08 -1.1,-0.813 -2.433,-1.547 -4,-2.2 -1.567,-0.647 -3.133,-1.38 -4.7,-2.2 -1.567,-0.813 -2.9,-1.963 -4,-3.45 -1.1,-1.48 -1.65,-3.237 -1.65,-5.27 v 0 c 0,-3.033 0.95,-5.36 2.85,-6.98 1.9,-1.613 4.46,-2.42 7.68,-2.42 3.213,0 6.603,0.583 10.17,1.75 z M 89.85,38.8 h -7.2 V 9.65 H 74.6 V 3.8 h 23.2 v 5.85 h -7.95 z m 25.1,0.25 v 0 c -4.9,0 -8.6,-1.693 -11.1,-5.08 -2.5,-3.38 -3.75,-7.687 -3.75,-12.92 0,-5.233 1.26,-9.5 3.78,-12.8 2.513,-3.3 6.213,-4.95 11.1,-4.95 4.88,0 8.587,1.65 11.12,4.95 2.533,3.3 3.8,7.567 3.8,12.8 v 0 c 0,7.167 -2.183,12.333 -6.55,15.5 v 0 c -2.3,1.667 -5.1,2.5 -8.4,2.5 z m 0.1,-30 v 0 c -1.767,0 -3.25,0.617 -4.45,1.85 v 0 c -2.133,2.133 -3.2,5.517 -3.2,10.15 v 0 c 0,3.5 0.65,6.407 1.95,8.72 1.3,2.32 3.21,3.48 5.73,3.48 2.513,0 4.403,-1.177 5.67,-3.53 1.267,-2.347 1.9,-5.213 1.9,-8.6 0,-3.38 -0.673,-6.237 -2.02,-8.57 -1.353,-2.333 -3.213,-3.5 -5.58,-3.5 z M 142.6,23.6 v 0 H 142 v 15.15 h -7.25 v -35 h 11.1 c 3.767,0 6.583,0.823 8.45,2.47 1.867,1.653 2.8,4.013 2.8,7.08 v 0 c 0,1.867 -0.65,3.573 -1.95,5.12 -1.3,1.553 -2.883,2.447 -4.75,2.68 v 0 c 1.333,0.367 2.367,0.973 3.1,1.82 0.733,0.853 1.5,2.23 2.3,4.13 v 0 l 4.95,11.7 h -7.45 l -4.85,-11.2 c -0.7,-1.6 -1.44,-2.66 -2.22,-3.18 -0.787,-0.513 -1.997,-0.77 -3.63,-0.77 z m 3.05,-14.15 v 0 H 142 v 8.45 h 3.15 c 1.333,0 2.377,-0.433 3.13,-1.3 0.747,-0.867 1.12,-1.933 1.12,-3.2 v 0 c 0,-2.633 -1.25,-3.95 -3.75,-3.95 z m 36.1,-5.65 h 7.55 L 178.55,24.05 V 38.8 H 171.3 V 24.05 L 161,3.8 h 7.65 L 175,17.5 Z"
       fill="#7fdbff"
       fill-rule="nonzero"
       stroke="none"
       stroke-width="1"
       stroke-linecap="butt"
       stroke-linejoin="miter"
       stroke-miterlimit="10"
       stroke-dasharray="none"
       stroke-dashoffset="0"
       font-family="none"
       font-weight="none"
       font-size="none"
       text-anchor="none"
       style="mix-blend-mode:normal;fill:#ffffff;fill-opacity:1"
       data-fill-palette-color="primary"
       opacity="1"
       id="path535"
       transform="matrix(2.0838777,0,0,2.0838777,282.63201,77.455648)" />
    <path
       d="M 97.066,49.294 H 84.667 c -0.919,0 -1.745,0.56 -2.085,1.412 l -1.541,3.857 -8.542,-21.378 c -0.34,-0.853 -1.166,-1.412 -2.084,-1.412 -0.919,0 -1.744,0.559 -2.085,1.412 L 61.894,49.294 H 53.06 c 2.014,-5.625 2.044,-11.745 -0.042,-16.634 -1.81,-4.24 -4.981,-7.124 -9.169,-8.34 -1.649,-0.478 -3.265,-0.721 -4.804,-0.721 -5.719,0 -9.354,3.237 -11.41,5.988 -2.057,-2.751 -5.691,-5.988 -11.411,-5.988 -1.539,0 -3.155,0.243 -4.804,0.722 -4.188,1.215 -7.358,4.1 -9.168,8.339 -2.501,5.861 -1.971,13.493 1.386,19.919 5.525,10.572 21.96,22.861 22.657,23.38 0.398,0.295 0.868,0.442 1.339,0.442 0.471,0 0.941,-0.147 1.339,-0.442 0.671,-0.499 15.909,-11.895 21.982,-22.175 h 12.46 c 0.918,0 1.744,-0.56 2.085,-1.412 l 4.915,-12.303 8.542,21.379 c 0.341,0.853 1.166,1.412 2.085,1.412 0.918,0 1.743,-0.56 2.085,-1.412 l 3.061,-7.664 h 10.879 c 1.239,0 2.244,-1.005 2.244,-2.245 0,-1.24 -1.005,-2.245 -2.245,-2.245 z M 27.634,71.325 C 23.635,68.192 11.806,58.516 7.617,50.5 4.91,45.316 4.425,39.006 6.381,34.422 c 0.881,-2.064 2.688,-4.744 6.291,-5.791 1.242,-0.36 2.437,-0.543 3.552,-0.543 6.129,0 8.861,5.655 9.347,6.789 0.354,0.825 1.166,1.361 2.064,1.361 0.898,0 1.71,-0.536 2.064,-1.361 0.485,-1.134 3.217,-6.789 9.346,-6.789 1.115,0 2.31,0.183 3.551,0.543 3.604,1.047 5.411,3.727 6.291,5.791 1.958,4.583 1.472,10.894 -1.235,16.077 -4.19,8.017 -16.019,17.693 -20.018,20.826 z"
       fill="#e95a86"
       data-fill-palette-color="accent"
       id="path552"
       transform="matrix(2.4784824,0,0,2.4784824,-1.7091942,-42.665375)"
       style="fill:#ffffff;fill-opacity:1" />
    <rect
       width="6.7277598"
       height="162.51746"
       x="262.0433"
       y="0"
       fill="#7fdbff"
       opacity="1"
       stroke-width="0"
       stroke="transparent"
       fill-opacity="1"
       class="rect-o-0"
       data-fill-palette-color="primary"
       rx="1%"
       id="o-0"
       data-palette-color="#7fdbff"
       ry="0"
       style="fill:#ffffff;fill-opacity:1" />
  </g>
</svg>
